# xmcd
#
# Track frame offsets:
#	150
#	33980
#	55935
#	73332
#	93672
#	117152
#	134472
#	157677
#	179227
#	201610
#
# Disc length: 2998 seconds
#
# Revision: 3
# Processed by: cddbd v1.5.2PL0 Copyright (c) Steve Scherf et al.
# Submitted via: audiograbber 1.82.02
#
DISCID=980bb40a
DTITLE=Susan Ashton - Susan Ashton
DYEAR=1993
DGENRE=Contemporary Christian
TTITLE0=Summer Solstice
TTITLE1=Waiting For Your Love To Come Down
TTITLE2=Remember Not
TTITLE3=There Is A Line
TTITLE4=Heart Like A Rock
TTITLE5=Agree To Disagree
TTITLE6=Hold The Intangible
TTITLE7=Call Of The Wild
TTITLE8=No Remedy For Love
TTITLE9=A Rose Is A Rose
EXTD=
EXTT0=
EXTT1=
EXTT2=
EXTT3=
EXTT4=
EXTT5=
EXTT6=
EXTT7=
EXTT8=
EXTT9=
PLAYORDER=
